<?xml version="1.0" encoding="UTF-8" standalone="no"?>
<!DOCTYPE svg PUBLIC "-//W3C//DTD SVG 1.1//EN" "http://www.w3.org/Graphics/SVG/1.1/DTD/svg11.dtd">
<svg width="100%" height="100%" viewBox="0 0 200 200" version="1.1" xmlns="http://www.w3.org/2000/svg" xmlns:xlink="http://www.w3.org/1999/xlink" xml:space="preserve" xmlns:serif="http://www.serif.com/" style="fill-rule:evenodd;clip-rule:evenodd;stroke-linejoin:round;stroke-miterlimit:2;">
    <path d="M100.971,20.567C144.368,21.088 179.439,56.481 179.439,100C179.439,143.844 143.844,179.439 100,179.439C70.026,179.439 43.907,162.802 30.381,138.266L47.59,128.393C57.687,146.977 77.381,159.604 100,159.604C132.896,159.604 159.604,132.896 159.604,100C159.604,67.39 133.359,40.861 100.857,40.402L100.971,20.567Z" style="fill-opacity:0.25;"/>
    <path d="M30.381,138.266C24.123,126.913 20.561,113.869 20.561,100C20.561,56.156 56.156,20.561 100,20.561C100.324,20.561 100.648,20.563 100.971,20.567L100.857,40.402C100.572,40.398 100.286,40.396 100,40.396C67.104,40.396 40.396,67.104 40.396,100C40.396,110.277 43.003,119.95 47.59,128.393L30.381,138.266Z" style="fill-opacity:0.75;"/>
</svg>


